<?xml version="1.0" encoding="utf-8"?>
<!-- Generator: Adobe Illustrator 22.0.0, SVG Export Plug-In . SVG Version: 6.00 Build 0)  -->
<svg version="1.1" id="Layer_1" xmlns="http://www.w3.org/2000/svg" xmlns:xlink="http://www.w3.org/1999/xlink" x="0px" y="0px"
	 viewBox="0 0 920 300" style="enable-background:new 0 0 920 300;" xml:space="preserve">
<style type="text/css">
	.st0{fill:#06061E;}
	.st1{fill:none;}
	.st2{fill:#9E5600;}
	.st3{font-family:'ArialMT';}
	.st4{font-size:46.5599px;}
	.st5{font-size:32.9778px;}
	.st6{fill:#E57200;}
</style>
<rect class="st0" width="920" height="300"/>
<rect x="657.4" y="-168.5" class="st1" width="1.5" height="16.5"/>
<polygon class="st2" points="266.6,300 0,300 0,0 445.1,0 "/>
<text transform="matrix(1 0 0 1 23 134.4692)" class="st0 st3 st4">Confira todas as</text>
<text transform="matrix(1 0 0 1 23 190.3692)" class="st0 st3 st4">promoções: </text>
<g>
	<text transform="matrix(1 0 0 1 437.0469 85.6321)" class="st2 st3 st5">Todos os produtos com 50%</text>
	<text transform="matrix(1 0 0 1 437.0469 125.2058)" class="st2 st3 st5">de desconto(29/06)</text>
	<text transform="matrix(1 0 0 1 437.0469 175.7556)" class="st2 st3 st5">Frete grátis para todo Brasil</text>
	<text transform="matrix(1 0 0 1 437.0469 226.3064)" class="st2 st3 st5">Descontos diários com até 30%</text>
	<text transform="matrix(0.9539 0 0 1 415.5112 182.3503)" class="st6 st3 st5">*</text>
	<text transform="matrix(1 0 0 1 415.5117 231.9597)" class="st6 st3 st5">*</text>
	<text transform="matrix(1 0 0 1 415.5117 92.5105)" class="st6 st3 st5">*</text>
</g>
</svg>
